<svg width="70" height="21" viewBox="0 0 70 21" fill="none" xmlns="http://www.w3.org/2000/svg">
<g clip-path="url(#clip0_1_163)">
<path fill-rule="evenodd" clip-rule="evenodd" d="M43.4229 16.4231C39.3703 19.4093 33.4755 21.0001 28.3913 21.0001C21.2685 21.0001 14.8826 18.3812 10.0194 14.0246C9.65098 13.682 9.9703 13.2169 10.4369 13.4861C15.6685 16.521 22.1282 18.3322 28.8088 18.3322C33.3036 18.3322 38.2649 17.4022 42.8334 15.4686C43.5209 15.1994 44.086 15.9336 43.4228 16.4231H43.4229Z" fill="#FF9900"/>
<path fill-rule="evenodd" clip-rule="evenodd" d="M45.1181 14.4895C44.6025 13.8286 41.6795 14.1713 40.3778 14.3426C39.9848 14.3915 39.9112 14.0489 40.2796 13.8041C42.6129 12.1643 46.4199 12.6538 46.862 13.1922C47.3041 13.7307 46.7393 17.5486 44.5529 19.3601C44.2091 19.6293 43.8897 19.4824 44.0373 19.1153C44.5287 17.8915 45.6339 15.1746 45.1181 14.4895Z" fill="#FF9900"/>
<path fill-rule="evenodd" clip-rule="evenodd" d="M40.4524 2.30106V0.709755C40.4497 0.657595 40.4579 0.605433 40.4767 0.556659C40.4954 0.507885 40.5243 0.463592 40.5614 0.426656C40.5984 0.38972 40.6429 0.36097 40.6918 0.342272C40.7408 0.323574 40.7931 0.315348 40.8454 0.318128H47.9683C48.0755 0.315878 48.1793 0.355649 48.2574 0.428886C48.3355 0.502124 48.3816 0.602977 48.3859 0.709755V2.05591C48.3859 2.27619 48.1894 2.56974 47.8455 3.05945L44.1613 8.29723C45.5368 8.27273 46.9861 8.46851 48.214 9.15362C48.4841 9.30047 48.5577 9.54524 48.5824 9.76552V11.4543C48.5824 11.6991 48.3368 11.9681 48.0668 11.8214C45.8808 10.6711 42.958 10.5487 40.551 11.8459C40.3054 11.9683 40.0354 11.7236 40.0354 11.4788V9.8636C40.0354 9.61882 40.0354 9.17849 40.3055 8.78671L44.5792 2.69232H40.87C40.7629 2.69457 40.6591 2.65485 40.581 2.58169C40.503 2.50854 40.4568 2.40778 40.4524 2.30106ZM14.4911 12.1643H12.3297C12.2328 12.1546 12.1419 12.1133 12.0708 12.047C11.9998 11.9806 11.9527 11.8929 11.9367 11.7972V0.734255C11.9409 0.62749 11.987 0.526648 12.0651 0.453413C12.1432 0.380178 12.247 0.340398 12.3542 0.342628H14.3682C14.4678 0.344129 14.5633 0.382579 14.636 0.450468C14.7086 0.518357 14.7533 0.610806 14.7612 0.709755V2.15384H14.8103C15.326 0.758755 16.3332 0.0979255 17.6595 0.0979255C19.0103 0.0979255 19.8699 0.758755 20.4595 2.15384C20.9751 0.758755 22.1788 0.0979255 23.4561 0.0979255C24.3649 0.0979255 25.3474 0.465053 25.9614 1.32173C26.649 2.25177 26.5018 3.59793 26.5018 4.79723V11.7972C26.4976 11.904 26.4514 12.0048 26.3734 12.0781C26.2953 12.1513 26.1915 12.1911 26.0843 12.1889H23.9472C23.7261 12.1644 23.5542 11.9931 23.5542 11.7972V5.92304C23.5542 5.45799 23.6033 4.28318 23.5051 3.84263C23.3332 3.10837 22.8665 2.8881 22.2279 2.8881C21.9459 2.8961 21.6724 2.98609 21.4412 3.14699C21.2099 3.3079 21.0308 3.53269 20.9261 3.7937C20.7051 4.35661 20.7296 5.28671 20.7296 5.92304V11.7972C20.7254 11.904 20.6793 12.0048 20.6012 12.0781C20.5231 12.1513 20.4193 12.1911 20.3121 12.1889H18.1507C17.9297 12.1644 17.7577 11.9931 17.7577 11.7972V5.92304C17.7577 4.69923 17.9542 2.8636 16.4314 2.8636C14.8841 2.8636 14.9332 4.62581 14.9332 5.92304V11.7972C14.9177 11.9019 14.8641 11.9973 14.7825 12.065C14.701 12.1327 14.5972 12.1681 14.4911 12.1644V12.1643ZM54.5262 0.0979255C57.7437 0.0979255 59.4876 2.83917 59.4876 6.33917C59.4876 9.71682 57.5718 12.4091 54.5262 12.4091C51.3823 12.4091 49.663 9.66782 49.663 6.24124C49.6384 2.79017 51.3823 0.0976277 54.5262 0.0976277V0.0979255ZM54.5262 2.37412C52.9296 2.37412 52.8314 4.55246 52.8314 5.89862C52.8314 7.24478 52.8069 10.1329 54.5017 10.1329C56.1719 10.1329 56.27 7.80768 56.27 6.3881C56.27 5.45799 56.221 4.33218 55.9507 3.451C55.7051 2.66774 55.2139 2.37412 54.5262 2.37412ZM63.6384 12.1643H61.477C61.256 12.1398 61.084 11.9685 61.084 11.7727V0.685106C61.0976 0.584038 61.1473 0.491238 61.224 0.423782C61.3007 0.356326 61.3993 0.318753 61.5016 0.317979H63.5157C63.607 0.321188 63.6948 0.353994 63.7657 0.411419C63.8366 0.468845 63.8868 0.547756 63.9087 0.636181V2.32497H63.9578C64.5718 0.807457 65.4069 0.0977021 66.9052 0.0977021C67.863 0.0977021 68.8209 0.440255 69.435 1.39494C69.9999 2.27604 69.9999 3.76905 69.9999 4.84601V11.8215C69.985 11.9199 69.9342 12.0094 69.857 12.0727C69.7799 12.1359 69.682 12.1685 69.5823 12.1641H67.4207C67.2243 12.1396 67.0523 11.9928 67.0277 11.8215V5.80069C67.0277 4.57688 67.1751 2.81452 65.6768 2.81452C65.1612 2.81452 64.6699 3.15707 64.4242 3.69563C64.1295 4.38073 64.0805 5.04179 64.0805 5.80054V11.7729C64.0667 11.8804 64.0144 11.9793 63.9331 12.0513C63.8518 12.1233 63.7471 12.1635 63.6384 12.1645L63.6384 12.1643ZM34.7789 6.87765C34.7789 7.70983 34.8035 8.41959 34.3859 9.17871C34.0422 9.79062 33.5017 10.1577 32.8877 10.1577C32.0526 10.1577 31.5614 9.52141 31.5614 8.59131C31.5614 6.75567 33.207 6.41297 34.7789 6.41297V6.87765ZM36.9649 12.1399C36.8949 12.2008 36.8075 12.2382 36.715 12.247C36.6225 12.2558 36.5295 12.2354 36.4493 12.1888C35.737 11.6014 35.5899 11.3077 35.1967 10.7447C34.0177 11.9436 33.158 12.3111 31.6353 12.3111C29.8177 12.3111 28.3931 11.1853 28.3931 8.95799C28.3931 7.19578 29.351 6.02097 30.7023 5.43349C31.8812 4.91966 33.5271 4.82159 34.7794 4.67473V4.40553C34.7794 3.8917 34.8285 3.27965 34.5093 2.8391C34.2391 2.44747 33.7479 2.27619 33.3061 2.27619C32.471 2.27619 31.7342 2.69224 31.5623 3.57343C31.5132 3.7692 31.3904 3.96505 31.1938 3.96505L29.1061 3.74478C28.9343 3.69585 28.7377 3.5735 28.7868 3.30422C29.278 0.758755 31.5623 0 33.6254 0C34.6815 0 36.0569 0.269202 36.892 1.07688C37.9482 2.05591 37.8499 3.37795 37.8499 4.79716V8.15031C37.8499 9.15384 38.2674 9.59439 38.6604 10.1573C38.8078 10.3531 38.8323 10.5979 38.6604 10.7202C38.1937 11.0873 37.4078 11.7727 36.9657 12.1398L36.9649 12.1399ZM6.41036 6.87765C6.41036 7.70983 6.43495 8.41959 6.01736 9.17871C5.67361 9.79062 5.13316 10.1577 4.51911 10.1577C3.68401 10.1577 3.19281 9.52141 3.19281 8.59131C3.19281 6.75567 4.83843 6.41297 6.41036 6.41297V6.87765ZM8.57176 12.1399C8.50176 12.2008 8.41435 12.2382 8.32185 12.247C8.22934 12.2558 8.13641 12.2354 8.05613 12.1888C7.34388 11.6014 7.19674 11.3077 6.80351 10.7447C5.62458 11.9436 4.7649 12.3111 3.24214 12.3111C1.42457 12.3111 0 11.1853 0 8.95799C0 7.19578 0.957881 6.02097 2.30914 5.43349C3.48807 4.91966 5.13391 4.82159 6.3863 4.67473V4.40553C6.3863 3.8917 6.4354 3.27965 6.11615 2.8391C5.84601 2.44747 5.35474 2.27619 4.91301 2.27619C4.07791 2.27619 3.34108 2.69224 3.16912 3.57343C3.12003 3.7692 2.99725 3.96505 2.80071 3.96505L0.712993 3.74478C0.541116 3.69585 0.344577 3.5735 0.393675 3.30422C0.884871 0.758755 3.16912 0 5.23225 0C6.2884 0 7.6638 0.269202 8.4989 1.07688C9.55505 2.05591 9.45678 3.37795 9.45678 4.79716V8.15031C9.45678 9.15384 9.8743 9.59439 10.2673 10.1573C10.4147 10.3531 10.4392 10.5979 10.2673 10.7202C9.80061 11.0873 9.01468 11.7727 8.57258 12.1398L8.57176 12.1399Z" fill="#020202"/>
</g>
<defs>
<clipPath id="clip0_1_163">
<rect width="70" height="21" fill="white"/>
</clipPath>
</defs>
</svg>
