<svg width="14" height="20" viewBox="0 0 14 20" fill="none" xmlns="http://www.w3.org/2000/svg">
<path d="M6.0001 20H4.0001C3.85239 19.999 3.70673 19.9653 3.5736 19.9014C3.44046 19.8374 3.32315 19.7447 3.23009 19.63C3.13234 19.5175 3.06095 19.3846 3.02116 19.241C2.98137 19.0974 2.97417 18.9467 3.0001 18.8L4.3801 12H1.0001C0.816467 12.0004 0.636279 11.9502 0.479288 11.8549C0.322297 11.7597 0.194564 11.623 0.110095 11.46C0.0327231 11.3019 -0.00154893 11.1262 0.0107421 10.9506C0.0230332 10.775 0.0814515 10.6058 0.180095 10.46L7.1801 0.46C7.26859 0.321979 7.38967 0.207835 7.53266 0.127619C7.67566 0.0474034 7.83618 0.00357714 8.0001 0H10.0001C10.1478 0.000976784 10.2935 0.0346631 10.4266 0.0986378C10.5597 0.162613 10.677 0.255287 10.7701 0.37C10.8679 0.482469 10.9392 0.615365 10.979 0.75897C11.0188 0.902574 11.026 1.05326 11.0001 1.2L9.6201 8H13.0001C13.1837 7.99962 13.3639 8.04981 13.5209 8.14506C13.6779 8.24031 13.8056 8.37695 13.8901 8.54C13.9675 8.6981 14.0017 8.87382 13.9894 9.04941C13.9772 9.22499 13.9187 9.39422 13.8201 9.54L6.8201 19.54C6.7316 19.678 6.61052 19.7922 6.46753 19.8724C6.32454 19.9526 6.16401 19.9964 6.0001 20ZM5.2201 18H5.48009L11.0801 10H8.40009C8.25239 9.99902 8.10673 9.96534 7.9736 9.90136C7.84046 9.83739 7.72315 9.74471 7.6301 9.63C7.53583 9.51583 7.46809 9.38215 7.43178 9.23861C7.39546 9.09507 7.39147 8.94527 7.4201 8.8L8.7801 2H8.5201L2.9201 10H5.6001C5.7478 10.001 5.89346 10.0347 6.02659 10.0986C6.15973 10.1626 6.27704 10.2553 6.3701 10.37C6.46436 10.4842 6.5321 10.6179 6.56841 10.7614C6.60473 10.9049 6.60872 11.0547 6.5801 11.2L5.2201 18Z" fill="#FF9900"/>
<path d="M5.2201 18H5.48009L11.0801 10H8.40009C8.25239 9.99902 8.10673 9.96534 7.9736 9.90136C7.84046 9.83739 7.72315 9.74471 7.6301 9.63C7.53583 9.51583 7.46809 9.38215 7.43178 9.23861C7.39546 9.09507 7.39147 8.94527 7.4201 8.8L8.7801 2H8.5201L2.9201 10H5.6001C5.7478 10.001 5.89346 10.0347 6.02659 10.0986C6.15973 10.1626 6.27704 10.2553 6.3701 10.37C6.46436 10.4842 6.5321 10.6179 6.56841 10.7614C6.60473 10.9049 6.60872 11.0547 6.5801 11.2L5.2201 18Z" fill="#FFD600"/>
</svg>
