<svg width="28" height="28" viewBox="0 0 28 28" fill="none" xmlns="http://www.w3.org/2000/svg">
<g opacity="0.5">
<path fill-rule="evenodd" clip-rule="evenodd" d="M14.1557 2.62497C14.154 2.62554 14.1522 2.62613 14.1505 2.62672C14.1476 2.62669 14.1447 2.62669 14.1418 2.62672C14.0903 2.6304 14.04 2.64314 13.993 2.66434L3.87975 6.98947C3.77591 7.00586 3.68144 7.0591 3.61363 7.13944C3.54582 7.21978 3.50921 7.32185 3.5105 7.42697L3.5105 20.5537C3.50999 20.6161 3.52282 20.6778 3.54813 20.7348C3.5487 20.7366 3.54928 20.7383 3.54988 20.7401C3.55343 20.7481 3.55722 20.756 3.56125 20.7637C3.60826 20.8582 3.68781 20.9324 3.78525 20.9728L13.9064 25.2997C13.9927 25.362 14.0988 25.3906 14.2047 25.3802C14.2814 25.3762 14.3556 25.352 14.42 25.3102L24.5647 20.9728C24.6359 20.9439 24.6982 20.8967 24.7454 20.836C24.7926 20.7754 24.8229 20.7033 24.8334 20.6272C24.8348 20.6194 24.8359 20.6115 24.8369 20.6036C24.8376 20.5966 24.8382 20.5896 24.8386 20.5826C24.8388 20.5753 24.8388 20.568 24.8386 20.5607C24.8386 20.5584 24.8386 20.5561 24.8386 20.5537V7.42697C24.8398 7.32317 24.8039 7.22235 24.7376 7.14252C24.6712 7.0627 24.5786 7.00907 24.4764 6.99122L14.3553 2.66434C14.3463 2.65996 14.3373 2.65587 14.3281 2.65209C14.327 2.65151 14.3258 2.65092 14.3246 2.65034C14.3117 2.64653 14.2985 2.64332 14.2852 2.64072C14.2809 2.63949 14.2765 2.63832 14.2721 2.63722C14.2623 2.63454 14.2524 2.63221 14.2424 2.63022C14.238 2.62957 14.2336 2.62899 14.2292 2.62847C14.2196 2.62757 14.21 2.62698 14.2004 2.62672C14.1855 2.62538 14.1706 2.62479 14.1557 2.62497ZM14.1741 3.53934L16.3187 4.45547L7.22925 8.34309C7.22037 8.34689 7.21161 8.35097 7.203 8.35534L5.0575 7.43747L14.175 3.53934H14.1741ZM17.4318 4.93234L20.034 6.04447L10.7748 10.0047C10.6892 10.0415 10.6176 10.1046 10.5704 10.1848C10.5232 10.2651 10.5028 10.3583 10.5122 10.451C10.5107 10.4678 10.5101 10.4848 10.5105 10.5017V15.183L9.562 13.7593C9.50289 13.6707 9.41348 13.6067 9.31054 13.5794C9.2076 13.552 9.09821 13.5631 9.00287 13.6106L7.8855 14.1688L7.8855 9.0151L17.4318 4.93234ZM21.147 6.5196L23.2934 7.43747L14.175 11.3356L12.0304 10.4195L21.1216 6.53185C21.1305 6.52805 21.1393 6.52397 21.1479 6.5196H21.147ZM4.3855 8.10072L7.0105 9.22335L7.0105 14.8767C7.0105 14.9513 7.02958 15.0247 7.06593 15.0898C7.10228 15.155 7.15468 15.2098 7.21816 15.249C7.28164 15.2882 7.35409 15.3105 7.42863 15.3138C7.50316 15.3171 7.5773 15.3013 7.644 15.2678L9.0475 14.5652L10.5595 16.8332C10.6075 16.9257 10.6869 16.998 10.7835 17.0371C10.7964 17.0421 10.8096 17.0465 10.8229 17.0502C10.8235 17.0508 10.824 17.0514 10.8246 17.052C10.8526 17.0601 10.8813 17.0653 10.9104 17.0677C10.9249 17.069 10.9395 17.0696 10.9541 17.0695C10.9687 17.0696 10.9833 17.069 10.9979 17.0677C11.0126 17.0655 11.0272 17.0626 11.0416 17.059C11.0504 17.0569 11.0592 17.0546 11.0679 17.052C11.0729 17.0509 11.0778 17.0497 11.0828 17.0485C11.1806 17.0177 11.2645 16.9535 11.3199 16.8672C11.3752 16.7808 11.3984 16.6777 11.3855 16.576V11.0967L13.7366 12.1012L13.7366 24.276L4.3855 20.2772L4.3855 8.10072ZM23.9636 8.10247V20.2772L14.6116 24.2777L14.6116 12.1012L23.9636 8.10247ZM18.4713 18.158C18.4695 18.1585 18.4677 18.1591 18.466 18.1597C18.4116 18.1624 18.3582 18.1751 18.3085 18.1973L15.7579 19.2876C15.6511 19.3331 15.5668 19.4191 15.5235 19.5268C15.4802 19.6344 15.4814 19.7548 15.5269 19.8616C15.5724 19.9683 15.6584 20.0527 15.766 20.096C15.8737 20.1393 15.9941 20.1381 16.1009 20.0926L18.6541 19.0023C18.751 18.9645 18.8313 18.8934 18.8804 18.8017C18.9296 18.7101 18.9446 18.6039 18.9225 18.5022C18.9005 18.4006 18.843 18.3101 18.7603 18.247C18.6776 18.1839 18.5751 18.1523 18.4713 18.158ZM21.0175 18.8142C20.964 18.8172 20.9115 18.8299 20.8626 18.8518L18.3094 19.9421L15.7579 21.0341C15.6511 21.0796 15.5668 21.1656 15.5235 21.2733C15.4802 21.3809 15.4814 21.5013 15.5269 21.6081C15.5724 21.7148 15.6584 21.7992 15.766 21.8425C15.8737 21.8858 15.9941 21.8846 16.1009 21.8391L18.6541 20.7471L21.2056 19.6551C21.3005 19.6155 21.3785 19.5438 21.4258 19.4525C21.4731 19.3612 21.4867 19.2561 21.4642 19.1558C21.4418 19.0554 21.3847 18.9662 21.303 18.9037C21.2213 18.8412 21.1202 18.8096 21.0175 18.8142Z" fill="#020202"/>
</g>
</svg>
