<svg width="28" height="28" viewBox="0 0 28 28" fill="none" xmlns="http://www.w3.org/2000/svg">
<g opacity="0.5">
<path fill-rule="evenodd" clip-rule="evenodd" d="M10.2083 17.5C10.2083 15.7281 11.6447 14.2917 13.4166 14.2917H14.5833C16.3552 14.2917 17.7916 15.7281 17.7916 17.5V24.5H16.0416V17.5C16.0416 16.6945 15.3888 16.0417 14.5833 16.0417H13.4166C12.6112 16.0417 11.9583 16.6945 11.9583 17.5V24.5H10.2083V17.5Z" fill="black"/>
<path fill-rule="evenodd" clip-rule="evenodd" d="M14.9101 5.27641C14.3789 4.88574 13.6508 4.8999 13.1351 5.31251L6.12501 10.9206V22.1667C6.12501 22.9721 6.77793 23.625 7.58335 23.625H20.4166C21.2221 23.625 21.875 22.9721 21.875 22.1667V10.8976L14.9101 5.27641ZM23.625 12.31L25.1171 13.5142C25.4932 13.8178 26.0441 13.759 26.3476 13.3828C26.6511 13.0068 26.5923 12.4559 26.2163 12.1525L15.9957 3.9037C15.9876 3.89719 15.9795 3.89082 15.9711 3.8846C14.8005 3.00672 13.1844 3.03196 12.0418 3.94598L1.78674 12.1501C1.40938 12.4519 1.3482 13.0026 1.65009 13.3799C1.95196 13.7573 2.50259 13.8185 2.87995 13.5166L4.37501 12.3206V22.1667C4.37501 23.9386 5.81143 25.375 7.58335 25.375H20.4166C22.1886 25.375 23.625 23.9386 23.625 22.1667V12.31Z" fill="black"/>
</g>
</svg>
