<svg width="28" height="28" viewBox="0 0 28 28" fill="none" xmlns="http://www.w3.org/2000/svg">
<g opacity="0.5">
<path d="M6.28572 24.2286C7.51652 24.2286 8.51429 23.2308 8.51429 22C8.51429 20.7692 7.51652 19.7714 6.28572 19.7714C5.05491 19.7714 4.05714 20.7692 4.05714 22C4.05714 23.2308 5.05491 24.2286 6.28572 24.2286Z" fill="#020202"/>
<path d="M6.28572 16.2286C7.51652 16.2286 8.51429 15.2308 8.51429 14C8.51429 12.7692 7.51652 11.7714 6.28572 11.7714C5.05491 11.7714 4.05714 12.7692 4.05714 14C4.05714 15.2308 5.05491 16.2286 6.28572 16.2286Z" fill="#020202"/>
<path d="M6.28572 8.22857C7.51652 8.22857 8.51429 7.2308 8.51429 5.99999C8.51429 4.76919 7.51652 3.77142 6.28572 3.77142C5.05491 3.77142 4.05714 4.76919 4.05714 5.99999C4.05714 7.2308 5.05491 8.22857 6.28572 8.22857Z" fill="#020202"/>
<path d="M6.28572 16.8C5.73193 16.8 5.19058 16.6358 4.73012 16.3281C4.26966 16.0205 3.91078 15.5832 3.69886 15.0715C3.48693 14.5599 3.43148 13.9969 3.53952 13.4538C3.64756 12.9106 3.91423 12.4117 4.30582 12.0201C4.69741 11.6285 5.19632 11.3619 5.73947 11.2538C6.28261 11.1458 6.8456 11.2012 7.35723 11.4132C7.86887 11.6251 8.30617 11.984 8.61383 12.4444C8.9215 12.9049 9.08572 13.4462 9.08572 14C9.08572 14.7426 8.79072 15.4548 8.26562 15.9799C7.74052 16.505 7.02833 16.8 6.28572 16.8ZM6.28572 12.3429C5.95797 12.3429 5.63758 12.4401 5.36506 12.6221C5.09254 12.8042 4.88014 13.063 4.75472 13.3659C4.62929 13.6687 4.59648 14.0019 4.66042 14.3233C4.72436 14.6448 4.88219 14.94 5.11394 15.1718C5.3457 15.4035 5.64097 15.5614 5.96243 15.6253C6.28388 15.6893 6.61708 15.6564 6.91988 15.531C7.22268 15.4056 7.48149 15.1932 7.66358 14.9207C7.84567 14.6482 7.94286 14.3278 7.94286 14C7.94286 13.5605 7.76827 13.139 7.4575 12.8282C7.14672 12.5175 6.72522 12.3429 6.28572 12.3429Z" fill="#020202"/>
<path d="M23.9429 14.5714H11.0286C10.877 14.5714 10.7317 14.5112 10.6245 14.4041C10.5174 14.2969 10.4572 14.1516 10.4572 14C10.4572 13.8485 10.5174 13.7031 10.6245 13.596C10.7317 13.4888 10.877 13.4286 11.0286 13.4286H23.9429C24.0944 13.4286 24.2398 13.4888 24.3469 13.596C24.4541 13.7031 24.5143 13.8485 24.5143 14C24.5143 14.1516 24.4541 14.2969 24.3469 14.4041C24.2398 14.5112 24.0944 14.5714 23.9429 14.5714Z" fill="#020202"/>
<path d="M6.28572 8.80001C5.73193 8.80001 5.19058 8.6358 4.73012 8.32813C4.26966 8.02046 3.91078 7.58316 3.69886 7.07153C3.48693 6.55989 3.43148 5.99691 3.53952 5.45376C3.64756 4.91061 3.91423 4.4117 4.30582 4.02011C4.69741 3.62853 5.19632 3.36185 5.73947 3.25381C6.28261 3.14578 6.8456 3.20123 7.35723 3.41315C7.86887 3.62508 8.30617 3.98396 8.61383 4.44442C8.9215 4.90487 9.08572 5.44623 9.08572 6.00001C9.08572 6.74262 8.79072 7.45481 8.26562 7.97991C7.74052 8.50501 7.02833 8.80001 6.28572 8.80001ZM6.28572 4.34287C5.95797 4.34287 5.63758 4.44006 5.36506 4.62215C5.09254 4.80424 4.88014 5.06305 4.75472 5.36585C4.62929 5.66866 4.59648 6.00185 4.66042 6.32331C4.72436 6.64476 4.88219 6.94003 5.11394 7.17179C5.3457 7.40355 5.64097 7.56137 5.96243 7.62531C6.28388 7.68926 6.61708 7.65644 6.91988 7.53101C7.22268 7.40559 7.48149 7.19319 7.66358 6.92067C7.84567 6.64816 7.94286 6.32777 7.94286 6.00001C7.94286 5.78239 7.9 5.56691 7.81672 5.36585C7.73344 5.1648 7.61138 4.98212 7.4575 4.82824C7.30362 4.67436 7.12093 4.55229 6.91988 4.46901C6.71883 4.38573 6.50334 4.34287 6.28572 4.34287Z" fill="#020202"/>
<path d="M23.9429 6.57145L11.0286 6.57145C10.877 6.57145 10.7317 6.51124 10.6245 6.40408C10.5174 6.29691 10.4572 6.15157 10.4572 6.00002C10.4572 5.84847 10.5174 5.70312 10.6245 5.59596C10.7317 5.48879 10.877 5.42859 11.0286 5.42859L23.9429 5.42859C24.0944 5.42859 24.2398 5.48879 24.3469 5.59596C24.4541 5.70312 24.5143 5.84847 24.5143 6.00002C24.5143 6.15157 24.4541 6.29691 24.3469 6.40408C24.2398 6.51124 24.0944 6.57145 23.9429 6.57145Z" fill="#020202"/>
<path d="M6.28572 24.8C5.73193 24.8 5.19058 24.6358 4.73012 24.3281C4.26966 24.0205 3.91078 23.5832 3.69886 23.0715C3.48693 22.5599 3.43148 21.9969 3.53952 21.4538C3.64756 20.9106 3.91423 20.4117 4.30582 20.0201C4.69741 19.6285 5.19632 19.3619 5.73947 19.2538C6.28261 19.1458 6.8456 19.2012 7.35723 19.4132C7.86887 19.6251 8.30617 19.984 8.61383 20.4444C8.9215 20.9049 9.08572 21.4462 9.08572 22C9.08572 22.7426 8.79072 23.4548 8.26562 23.9799C7.74052 24.505 7.02833 24.8 6.28572 24.8ZM6.28572 20.3429C5.95797 20.3429 5.63758 20.4401 5.36506 20.6221C5.09254 20.8042 4.88014 21.063 4.75472 21.3659C4.62929 21.6687 4.59648 22.0019 4.66042 22.3233C4.72436 22.6448 4.88219 22.94 5.11394 23.1718C5.3457 23.4035 5.64097 23.5614 5.96243 23.6253C6.28388 23.6893 6.61708 23.6564 6.91988 23.531C7.22268 23.4056 7.48149 23.1932 7.66358 22.9207C7.84567 22.6482 7.94286 22.3278 7.94286 22C7.94286 21.5605 7.76827 21.139 7.4575 20.8282C7.14672 20.5175 6.72522 20.3429 6.28572 20.3429Z" fill="#020202"/>
<path d="M23.9429 22.5714H11.0286C10.877 22.5714 10.7317 22.5112 10.6245 22.4041C10.5174 22.2969 10.4572 22.1516 10.4572 22C10.4572 21.8485 10.5174 21.7031 10.6245 21.596C10.7317 21.4888 10.877 21.4286 11.0286 21.4286H23.9429C24.0944 21.4286 24.2398 21.4888 24.3469 21.596C24.4541 21.7031 24.5143 21.8485 24.5143 22C24.5143 22.1516 24.4541 22.2969 24.3469 22.4041C24.2398 22.5112 24.0944 22.5714 23.9429 22.5714Z" fill="#020202"/>
</g>
</svg>
