<svg width="28" height="28" viewBox="0 0 28 28" fill="none" xmlns="http://www.w3.org/2000/svg">
<g opacity="0.5">
<path d="M9.63984 3.39026L7.2576 3.39026C6.21795 3.39026 5.22088 3.80326 4.48574 4.5384C3.7506 5.27354 3.3376 6.27061 3.3376 7.31026L3.3376 9.55026C3.3376 10.5899 3.7506 11.587 4.48574 12.3221C5.22088 13.0573 6.21795 13.4703 7.2576 13.4703H9.63984C10.6795 13.4703 11.6766 13.0573 12.4117 12.3221C13.1468 11.587 13.5598 10.5899 13.5598 9.55026V7.31026C13.5598 6.27061 13.1468 5.27354 12.4117 4.5384C11.6766 3.80326 10.6795 3.39026 9.63984 3.39026ZM12.4398 9.55026C12.4398 9.91796 12.3674 10.2821 12.2267 10.6218C12.086 10.9615 11.8797 11.2702 11.6197 11.5302C11.3597 11.7902 11.0511 11.9964 10.7114 12.1371C10.3716 12.2778 10.0075 12.3503 9.63984 12.3503H7.2576C6.51499 12.3503 5.8028 12.0553 5.2777 11.5302C4.7526 11.0051 4.4576 10.2929 4.4576 9.55026V7.31026C4.4576 6.56765 4.7526 5.85546 5.2777 5.33036C5.8028 4.80526 6.51499 4.51026 7.2576 4.51026H9.63984C10.3824 4.51026 11.0946 4.80526 11.6197 5.33036C12.1448 5.85546 12.4398 6.56765 12.4398 7.31026V9.55026ZM8.51984 14.5298H8.3776C7.04091 14.5298 5.75896 15.0608 4.81378 16.006C3.8686 16.9511 3.3376 18.2331 3.3376 19.5698C3.3376 20.9065 3.8686 22.1884 4.81378 23.1336C5.75896 24.0788 7.04091 24.6098 8.3776 24.6098H8.51984C9.85653 24.6098 11.1385 24.0788 12.0837 23.1336C13.0288 22.1884 13.5598 20.9065 13.5598 19.5698C13.5598 18.2331 13.0288 16.9511 12.0837 16.006C11.1385 15.0608 9.85653 14.5298 8.51984 14.5298ZM19.4802 13.4703H19.6459C20.9826 13.4703 22.2646 12.9393 23.2097 11.9941C24.1549 11.0489 24.6859 9.76695 24.6859 8.43026C24.6859 7.09357 24.1549 5.81162 23.2097 4.86644C22.2646 3.92126 20.9826 3.39026 19.6459 3.39026H19.4802C18.1435 3.39026 16.8615 3.92126 15.9163 4.86644C14.9712 5.81162 14.4402 7.09357 14.4402 8.43026C14.4402 9.76695 14.9712 11.0489 15.9163 11.9941C16.8615 12.9393 18.1435 13.4703 19.4802 13.4703ZM19.4802 4.51026H19.6459C20.6856 4.51026 21.6826 4.92326 22.4178 5.6584C23.1529 6.39354 23.5659 7.39061 23.5659 8.43026C23.5659 9.46991 23.1529 10.467 22.4178 11.2021C21.6826 11.9373 20.6856 12.3503 19.6459 12.3503H19.4802C18.4405 12.3503 17.4434 11.9373 16.7083 11.2021C15.9732 10.467 15.5602 9.46991 15.5602 8.43026C15.5602 7.39061 15.9732 6.39354 16.7083 5.6584C17.4434 4.92326 18.4405 4.51026 19.4802 4.51026ZM20.7659 14.5298L18.3602 14.5298C17.3205 14.5298 16.3234 14.9428 15.5883 15.6779C14.8532 16.4131 14.4402 17.4101 14.4402 18.4498L14.4402 20.6898C14.4402 21.7294 14.8532 22.7265 15.5883 23.4616C16.3234 24.1968 17.3205 24.6098 18.3602 24.6098H20.7659C21.8056 24.6098 22.8026 24.1968 23.5378 23.4616C24.2729 22.7265 24.6859 21.7294 24.6859 20.6898V18.4498C24.6859 17.4101 24.2729 16.4131 23.5378 15.6779C22.8026 14.9428 21.8056 14.5298 20.7659 14.5298ZM23.5659 20.6898C23.5659 21.0575 23.4935 21.4216 23.3528 21.7613C23.2121 22.101 23.0058 22.4097 22.7458 22.6697C22.4858 22.9297 22.1771 23.1359 21.8374 23.2766C21.4977 23.4174 21.1336 23.4898 20.7659 23.4898H18.3602C17.9925 23.4898 17.6284 23.4174 17.2886 23.2766C16.9489 23.1359 16.6403 22.9297 16.3803 22.6697C16.1203 22.4097 15.914 22.101 15.7733 21.7613C15.6326 21.4216 15.5602 21.0575 15.5602 20.6898L15.5602 18.4498C15.5602 17.7072 15.8552 16.995 16.3803 16.4699C16.9054 15.9448 17.6176 15.6498 18.3602 15.6498L20.7659 15.6498C21.1336 15.6498 21.4977 15.7222 21.8374 15.8629C22.1771 16.0036 22.4858 16.2099 22.7458 16.4699C23.0058 16.7299 23.2121 17.0386 23.3528 17.3783C23.4935 17.718 23.5659 18.0821 23.5659 18.4498V20.6898Z" fill="#020202"/>
</g>
</svg>
