<svg width="28" height="28" viewBox="0 0 28 28" fill="none" xmlns="http://www.w3.org/2000/svg">
<g clip-path="url(#clip0_1_29)">
<path d="M26.7695 0H22.5586C22.4498 0 22.3455 0.0432128 22.2686 0.120132C22.1917 0.197051 22.1484 0.301376 22.1484 0.410156C22.1484 0.518936 22.1917 0.623261 22.2686 0.700181C22.3455 0.7771 22.4498 0.820312 22.5586 0.820312H26.7695C26.8783 0.820428 26.9825 0.863678 27.0594 0.940572C27.1363 1.01747 27.1796 1.12172 27.1797 1.23047V5.44141C27.1797 5.55019 27.2229 5.65451 27.2998 5.73143C27.3767 5.80835 27.4811 5.85156 27.5898 5.85156C27.6986 5.85156 27.8029 5.80835 27.8799 5.73143C27.9568 5.65451 28 5.55019 28 5.44141V1.23047C27.9996 0.904239 27.8699 0.591475 27.6392 0.360796C27.4085 0.130116 27.0958 0.000361874 26.7695 0ZM0.410156 5.85156C0.518936 5.85156 0.623261 5.80835 0.700181 5.73143C0.7771 5.65451 0.820312 5.55019 0.820312 5.44141V1.23047C0.820428 1.12172 0.863678 1.01747 0.940572 0.940572C1.01747 0.863678 1.12172 0.820428 1.23047 0.820312H5.44141C5.55019 0.820312 5.65451 0.7771 5.73143 0.700181C5.80835 0.623261 5.85156 0.518936 5.85156 0.410156C5.85156 0.301376 5.80835 0.197051 5.73143 0.120132C5.65451 0.0432128 5.55019 0 5.44141 0L1.23047 0C0.904239 0.000361874 0.591475 0.130116 0.360796 0.360796C0.130116 0.591475 0.000361874 0.904239 0 1.23047L0 5.44141C0 5.55019 0.0432128 5.65451 0.120132 5.73143C0.197051 5.80835 0.301376 5.85156 0.410156 5.85156ZM27.5898 22.1484C27.4811 22.1484 27.3767 22.1917 27.2998 22.2686C27.2229 22.3455 27.1797 22.4498 27.1797 22.5586V26.7695C27.1796 26.8783 27.1363 26.9825 27.0594 27.0594C26.9825 27.1363 26.8783 27.1796 26.7695 27.1797H22.5586C22.4498 27.1797 22.3455 27.2229 22.2686 27.2998C22.1917 27.3767 22.1484 27.4811 22.1484 27.5898C22.1484 27.6986 22.1917 27.8029 22.2686 27.8799C22.3455 27.9568 22.4498 28 22.5586 28H26.7695C27.0958 27.9996 27.4085 27.8699 27.6392 27.6392C27.8699 27.4085 27.9996 27.0958 28 26.7695V22.5586C28 22.4498 27.9568 22.3455 27.8799 22.2686C27.8029 22.1917 27.6986 22.1484 27.5898 22.1484ZM5.44141 27.1797H1.23047C1.12172 27.1796 1.01747 27.1363 0.940572 27.0594C0.863678 26.9825 0.820428 26.8783 0.820312 26.7695V22.5586C0.820312 22.4498 0.7771 22.3455 0.700181 22.2686C0.623261 22.1917 0.518936 22.1484 0.410156 22.1484C0.301376 22.1484 0.197051 22.1917 0.120132 22.2686C0.0432128 22.3455 0 22.4498 0 22.5586L0 26.7695C0.000361874 27.0958 0.130116 27.4085 0.360796 27.6392C0.591475 27.8699 0.904239 27.9996 1.23047 28H5.44141C5.55019 28 5.65451 27.9568 5.73143 27.8799C5.80835 27.8029 5.85156 27.6986 5.85156 27.5898C5.85156 27.4811 5.80835 27.3767 5.73143 27.2998C5.65451 27.2229 5.55019 27.1797 5.44141 27.1797ZM4.10156 6.15234V10.3633C4.10217 10.907 4.31843 11.4283 4.70289 11.8127C5.08736 12.1972 5.60863 12.4135 6.15234 12.4141H10.3633C10.907 12.4135 11.4283 12.1972 11.8127 11.8127C12.1972 11.4283 12.4135 10.907 12.4141 10.3633V6.15234C12.4135 5.60863 12.1972 5.08736 11.8127 4.70289C11.4283 4.31843 10.907 4.10217 10.3633 4.10156H6.15234C5.60863 4.10217 5.08736 4.31843 4.70289 4.70289C4.31843 5.08736 4.10217 5.60863 4.10156 6.15234ZM4.92188 6.15234C4.92224 5.82611 5.05199 5.51335 5.28267 5.28267C5.51335 5.05199 5.82611 4.92224 6.15234 4.92188H10.3633C10.6895 4.92224 11.0023 5.05199 11.233 5.28267C11.4636 5.51335 11.5934 5.82611 11.5938 6.15234V10.3633C11.5934 10.6895 11.4636 11.0023 11.233 11.233C11.0023 11.4636 10.6895 11.5934 10.3633 11.5938H6.15234C5.82611 11.5934 5.51335 11.4636 5.28267 11.233C5.05199 11.0023 4.92224 10.6895 4.92188 10.3633V6.15234ZM7.24609 9.54297H9.26953C9.34205 9.54297 9.4116 9.51416 9.46288 9.46288C9.51416 9.4116 9.54297 9.34205 9.54297 9.26953V7.24609C9.54297 7.17357 9.51416 7.10402 9.46288 7.05274C9.4116 7.00146 9.34205 6.97266 9.26953 6.97266H7.24609C7.17357 6.97266 7.10402 7.00146 7.05274 7.05274C7.00146 7.10402 6.97266 7.17357 6.97266 7.24609V9.26953C6.97266 9.34205 7.00146 9.4116 7.05274 9.46288C7.10402 9.51416 7.17357 9.54297 7.24609 9.54297ZM17.6367 12.4141H21.8477C22.3914 12.4135 22.9126 12.1972 23.2971 11.8127C23.6816 11.4283 23.8978 10.907 23.8984 10.3633V6.15234C23.8978 5.60863 23.6816 5.08736 23.2971 4.70289C22.9126 4.31843 22.3914 4.10217 21.8477 4.10156H17.6367C17.093 4.10217 16.5717 4.31843 16.1873 4.70289C15.8028 5.08736 15.5865 5.60863 15.5859 6.15234V10.3633C15.5865 10.907 15.8028 11.4283 16.1873 11.8127C16.5717 12.1972 17.093 12.4135 17.6367 12.4141ZM16.4062 6.15234C16.4066 5.82611 16.5364 5.51335 16.767 5.28267C16.9977 5.05199 17.3105 4.92224 17.6367 4.92188H21.8477C22.1739 4.92224 22.4867 5.05199 22.7173 5.28267C22.948 5.51335 23.0778 5.82611 23.0781 6.15234V10.3633C23.0778 10.6895 22.948 11.0023 22.7173 11.233C22.4867 11.4636 22.1739 11.5934 21.8477 11.5938H17.6367C17.3105 11.5934 16.9977 11.4636 16.767 11.233C16.5364 11.0023 16.4066 10.6895 16.4062 10.3633V6.15234ZM18.7305 9.54297H20.7539C20.8264 9.54297 20.896 9.51416 20.9473 9.46288C20.9985 9.4116 21.0273 9.34205 21.0273 9.26953V7.24609C21.0273 7.17357 20.9985 7.10402 20.9473 7.05274C20.896 7.00146 20.8264 6.97266 20.7539 6.97266H18.7305C18.6579 6.97266 18.5884 7.00146 18.5371 7.05274C18.4858 7.10402 18.457 7.17357 18.457 7.24609V9.26953C18.457 9.34205 18.4858 9.4116 18.5371 9.46288C18.5884 9.51416 18.6579 9.54297 18.7305 9.54297ZM20.6172 16.4062V15.5859H19.7969V16.4062H20.6172ZM21.4375 20.5078H22.2578V19.6875H21.4375V20.5078ZM19.7969 19.6875H18.9766V20.5078H19.7969V19.6875ZM18.9766 17.2266H19.7969V16.4062H18.9766V17.2266ZM13.5898 11.5938V12.4141H14.4102V11.5938H13.5898ZM23.8984 23.4336V20.9727C23.8984 20.8639 23.8552 20.7596 23.7783 20.6826C23.7014 20.6057 23.5971 20.5625 23.4883 20.5625H22.832C22.7233 20.5625 22.6189 20.6057 22.542 20.6826C22.4651 20.7596 22.4219 20.8639 22.4219 20.9727C22.4219 21.0814 22.4651 21.1858 22.542 21.2627C22.6189 21.3396 22.7233 21.3828 22.832 21.3828H23.0781V23.0234H17.7461C17.6373 23.0234 17.533 23.0667 17.4561 23.1436C17.3792 23.2205 17.3359 23.3248 17.3359 23.4336C17.3359 23.5424 17.3792 23.6467 17.4561 23.7236C17.533 23.8005 17.6373 23.8438 17.7461 23.8438H23.4883C23.5971 23.8438 23.7014 23.8005 23.7783 23.7236C23.8552 23.6467 23.8984 23.5424 23.8984 23.4336ZM17.6367 18.9219H21.8477C21.9564 18.9219 22.0608 18.8787 22.1377 18.8017C22.2146 18.7248 22.2578 18.6205 22.2578 18.5117C22.2578 18.4029 22.2146 18.2986 22.1377 18.2217C22.0608 18.1448 21.9564 18.1016 21.8477 18.1016H17.6367C17.5279 18.1016 17.4236 18.1448 17.3467 18.2217C17.2698 18.2986 17.2266 18.4029 17.2266 18.5117C17.2266 18.6205 17.2698 18.7248 17.3467 18.8017C17.4236 18.8787 17.5279 18.9219 17.6367 18.9219ZM19.2773 22.2031H21.0273C21.1361 22.2031 21.2404 22.1599 21.3174 22.083C21.3943 22.0061 21.4375 21.9017 21.4375 21.793C21.4375 21.6842 21.3943 21.5799 21.3174 21.5029C21.2404 21.426 21.1361 21.3828 21.0273 21.3828H19.2773C19.1686 21.3828 19.0642 21.426 18.9873 21.5029C18.9104 21.5799 18.8672 21.6842 18.8672 21.793C18.8672 21.9017 18.9104 22.0061 18.9873 22.083C19.0642 22.1599 19.1686 22.2031 19.2773 22.2031ZM9.26953 18.457H7.24609C7.17357 18.457 7.10402 18.4858 7.05274 18.5371C7.00146 18.5884 6.97266 18.6579 6.97266 18.7305V20.7539C6.97266 20.8264 7.00146 20.896 7.05274 20.9473C7.10402 20.9985 7.17357 21.0273 7.24609 21.0273H9.26953C9.34205 21.0273 9.4116 20.9985 9.46288 20.9473C9.51416 20.896 9.54297 20.8264 9.54297 20.7539V18.7305C9.54297 18.6579 9.51416 18.5884 9.46288 18.5371C9.4116 18.4858 9.34205 18.457 9.26953 18.457ZM10.3633 15.5859H6.15234C5.60863 15.5865 5.08736 15.8028 4.70289 16.1873C4.31843 16.5717 4.10217 17.093 4.10156 17.6367V21.8477C4.10217 22.3914 4.31843 22.9126 4.70289 23.2971C5.08736 23.6816 5.60863 23.8978 6.15234 23.8984H10.3633C10.907 23.8978 11.4283 23.6816 11.8127 23.2971C12.1972 22.9126 12.4135 22.3914 12.4141 21.8477V17.6367C12.4135 17.093 12.1972 16.5717 11.8127 16.1873C11.4283 15.8028 10.907 15.5865 10.3633 15.5859ZM11.5938 21.8477C11.5934 22.1739 11.4636 22.4867 11.233 22.7173C11.0023 22.948 10.6895 23.0778 10.3633 23.0781H6.15234C5.82611 23.0778 5.51335 22.948 5.28267 22.7173C5.05199 22.4867 4.92224 22.1739 4.92188 21.8477V17.6367C4.92224 17.3105 5.05199 16.9977 5.28267 16.767C5.51335 16.5364 5.82611 16.4066 6.15234 16.4062H10.3633C10.6895 16.4066 11.0023 16.5364 11.233 16.767C11.4636 16.9977 11.5934 17.3105 11.5938 17.6367V21.8477ZM14 18.0469C13.8912 18.0469 13.7869 18.0901 13.71 18.167C13.6331 18.2439 13.5898 18.3483 13.5898 18.457V23.4883C13.5898 23.5971 13.6331 23.7014 13.71 23.7783C13.7869 23.8552 13.8912 23.8984 14 23.8984C14.1088 23.8984 14.2131 23.8552 14.29 23.7783C14.3669 23.7014 14.4102 23.5971 14.4102 23.4883V18.457C14.4102 18.3483 14.3669 18.2439 14.29 18.167C14.2131 18.0901 14.1088 18.0469 14 18.0469ZM13.5898 16.4062H14.4102V15.5859H13.5898V16.4062ZM15.5859 23.8438H16.4062V23.0234H15.5859V23.8438ZM15.9961 15.5859C15.8873 15.5859 15.783 15.6291 15.7061 15.7061C15.6291 15.783 15.5859 15.8873 15.5859 15.9961V21.0273C15.5859 21.1361 15.6291 21.2404 15.7061 21.3174C15.783 21.3943 15.8873 21.4375 15.9961 21.4375C16.1049 21.4375 16.2092 21.3943 16.2861 21.3174C16.363 21.2404 16.4062 21.1361 16.4062 21.0273V15.9961C16.4062 15.8873 16.363 15.783 16.2861 15.7061C16.2092 15.6291 16.1049 15.5859 15.9961 15.5859ZM17.3359 20.043V21.793C17.3359 21.9017 17.3792 22.0061 17.4561 22.083C17.533 22.1599 17.6373 22.2031 17.7461 22.2031C17.8549 22.2031 17.9592 22.1599 18.0361 22.083C18.113 22.0061 18.1562 21.9017 18.1562 21.793V20.043C18.1562 19.9342 18.113 19.8299 18.0361 19.7529C17.9592 19.676 17.8549 19.6328 17.7461 19.6328C17.6373 19.6328 17.533 19.676 17.4561 19.7529C17.3792 19.8299 17.3359 19.9342 17.3359 20.043ZM23.4883 18.9766C23.5971 18.9766 23.7014 18.9333 23.7783 18.8564C23.8552 18.7795 23.8984 18.6752 23.8984 18.5664V15.9961C23.8984 15.8873 23.8552 15.783 23.7783 15.7061C23.7014 15.6291 23.5971 15.5859 23.4883 15.5859H21.9004C21.7916 15.5859 21.6873 15.6291 21.6104 15.7061C21.5335 15.783 21.4903 15.8873 21.4903 15.9961C21.4903 16.1049 21.5335 16.2092 21.6104 16.2861C21.6873 16.363 21.7916 16.4062 21.9004 16.4062H23.0781V18.5664C23.0781 18.6752 23.1213 18.7795 23.1983 18.8564C23.2752 18.9333 23.3795 18.9766 23.4883 18.9766ZM13.0568 4.92188H13.5898V10.3633C13.5898 10.4721 13.6331 10.5764 13.71 10.6533C13.7869 10.7302 13.8912 10.7734 14 10.7734C14.1088 10.7734 14.2131 10.7302 14.29 10.6533C14.3669 10.5764 14.4102 10.4721 14.4102 10.3633V4.51172C14.4102 4.40294 14.3669 4.29861 14.29 4.22169C14.2131 4.14478 14.1088 4.10156 14 4.10156H13.0568C12.948 4.10156 12.8436 4.14478 12.7667 4.22169C12.6898 4.29861 12.6466 4.40294 12.6466 4.51172C12.6466 4.6205 12.6898 4.72482 12.7667 4.80174C12.8436 4.87866 12.948 4.92188 13.0568 4.92188ZM26.3047 14C26.3047 13.8912 26.2615 13.7869 26.1846 13.71C26.1076 13.6331 26.0033 13.5898 25.8945 13.5898H2.10547C1.99669 13.5898 1.89236 13.6331 1.81544 13.71C1.73853 13.7869 1.69531 13.8912 1.69531 14C1.69531 14.1088 1.73853 14.2131 1.81544 14.29C1.89236 14.3669 1.99669 14.4102 2.10547 14.4102H25.8945C26.0033 14.4102 26.1076 14.3669 26.1846 14.29C26.2615 14.2131 26.3047 14.1088 26.3047 14Z" fill="white"/>
</g>
<defs>
<clipPath id="clip0_1_29">
<rect width="28" height="28" fill="white"/>
</clipPath>
</defs>
</svg>
