<svg width="20" height="20" viewBox="0 0 20 20" fill="none" xmlns="http://www.w3.org/2000/svg">
<path d="M13.736 12.6C13.4154 13.0326 13.0326 13.4154 12.6 13.736L12.024 13.16C12.464 12.848 12.848 12.464 13.16 12.024L13.736 12.6Z" fill="#008080"/>
<path d="M8.4 13.6C7.37154 13.6 6.36617 13.295 5.51103 12.7237C4.6559 12.1523 3.9894 11.3401 3.59583 10.39C3.20225 9.43979 3.09927 8.39425 3.29992 7.38554C3.50056 6.37684 3.99581 5.45029 4.72304 4.72306C5.45028 3.99583 6.37683 3.50057 7.38553 3.29993C8.39423 3.09929 9.43978 3.20227 10.39 3.59584C11.3401 3.98942 12.1523 4.65591 12.7236 5.51105C13.295 6.36619 13.6 7.37155 13.6 8.40001C13.5983 9.77862 13.0499 11.1003 12.0751 12.0751C11.1003 13.0499 9.7786 13.5983 8.4 13.6ZM8.4 4.00001C7.52976 4.00001 6.67907 4.25807 5.95549 4.74155C5.23191 5.22503 4.66795 5.91221 4.33493 6.71621C4.0019 7.5202 3.91477 8.4049 4.08454 9.25841C4.25432 10.1119 4.67338 10.8959 5.28873 11.5113C5.90408 12.1266 6.68809 12.5457 7.5416 12.7155C8.39512 12.8852 9.27981 12.7981 10.0838 12.4651C10.8878 12.1321 11.575 11.5681 12.0585 10.8445C12.5419 10.1209 12.8 9.27025 12.8 8.40001C12.7985 7.23352 12.3345 6.11522 11.5096 5.29038C10.6848 4.46554 9.5665 4.0015 8.4 4.00001Z" fill="#008080"/>
<path d="M11.4048 7.69839C11.3229 7.69853 11.2429 7.67352 11.1756 7.62674C11.1084 7.57995 11.0571 7.51365 11.0288 7.43679C10.7702 6.73856 10.2464 6.17071 9.5712 5.85679C9.47487 5.81223 9.40019 5.73123 9.36358 5.63162C9.32698 5.532 9.33144 5.42191 9.376 5.32559C9.42056 5.22926 9.50155 5.15458 9.60117 5.11797C9.70079 5.08137 9.81087 5.08583 9.9072 5.13039C10.7743 5.53427 11.4474 6.26343 11.7808 7.15999C11.799 7.20951 11.8072 7.26214 11.805 7.31486C11.8028 7.36757 11.7902 7.41932 11.7679 7.46714C11.7455 7.51495 11.714 7.55788 11.675 7.59345C11.6361 7.62901 11.5904 7.65652 11.5408 7.67439C11.4971 7.68977 11.4511 7.69787 11.4048 7.69839ZM8.5328 5.59999H8.5184H8.4C8.29391 5.59999 8.19217 5.55784 8.11716 5.48283C8.04214 5.40782 8 5.30607 8 5.19999C8 5.0939 8.04214 4.99216 8.11716 4.91715C8.19217 4.84213 8.29391 4.79999 8.4 4.79999H8.5472C8.65329 4.8019 8.75427 4.84587 8.82793 4.92224C8.9016 4.9986 8.94191 5.1011 8.94 5.20719C8.93809 5.31327 8.89412 5.41426 8.81775 5.48792C8.74139 5.56159 8.63889 5.6019 8.5328 5.59999Z" fill="#008080"/>
<path d="M16.272 16.272C16.1246 16.4215 15.949 16.5402 15.7554 16.6212C15.5617 16.7022 15.3539 16.744 15.144 16.744C14.9341 16.744 14.7263 16.7022 14.5326 16.6212C14.339 16.5402 14.1634 16.4215 14.016 16.272L11.728 13.984L11.656 13.912L10.552 12.816C10.4787 12.7413 10.4377 12.6407 10.4377 12.536C10.4377 12.4313 10.4787 12.3308 10.552 12.256C10.5892 12.2185 10.6334 12.1888 10.6822 12.1685C10.7309 12.1482 10.7832 12.1377 10.836 12.1377C10.8888 12.1377 10.9411 12.1482 10.9898 12.1685C11.0386 12.1888 11.0828 12.2185 11.12 12.256L12.6 13.736L14.576 15.712C14.7266 15.8627 14.931 15.9473 15.144 15.9473C15.357 15.9473 15.5614 15.8627 15.712 15.712C15.8626 15.5614 15.9473 15.3571 15.9473 15.144C15.9473 14.931 15.8626 14.7267 15.712 14.576L13.736 12.6L13.16 12.024L12.256 11.12C12.2185 11.0828 12.1887 11.0386 12.1684 10.9899C12.1481 10.9411 12.1377 10.8888 12.1377 10.836C12.1377 10.7832 12.1481 10.7309 12.1684 10.6822C12.1887 10.6335 12.2185 10.5892 12.256 10.552C12.3308 10.4787 12.4313 10.4377 12.536 10.4377C12.6407 10.4377 12.7412 10.4787 12.816 10.552L13.912 11.656L13.984 11.728L16.272 14.016C16.4203 14.164 16.538 14.3399 16.6183 14.5334C16.6986 14.727 16.7399 14.9345 16.7399 15.144C16.7399 15.3536 16.6986 15.5611 16.6183 15.7546C16.538 15.9482 16.4203 16.124 16.272 16.272Z" fill="#008080"/>
</svg>
